<?xml version="1.0" standalone="no"?>
<!DOCTYPE svg PUBLIC "-//W3C//DTD SVG 20010904//EN"
 "http://www.w3.org/TR/2001/REC-SVG-20010904/DTD/svg10.dtd">
<svg version="1.0" xmlns="http://www.w3.org/2000/svg"
 width="2550.000000pt" height="2550.000000pt" viewBox="0 0 2550.000000 2550.000000"
 preserveAspectRatio="xMidYMid meet">

<g transform="translate(0.000000,2550.000000) scale(0.100000,-0.100000)"
fill="#000000" stroke="none">
<path d="M12090 25489 c-4003 -204 -7667 -2277 -9922 -5614 -1300 -1924 -2040
-4151 -2158 -6495 -13 -251 -13 -1009 0 -1260 88 -1740 513 -3402 1266 -4948
1584 -3254 4487 -5693 7955 -6686 936 -268 1896 -426 2889 -476 251 -13 1009
-13 1260 0 1740 88 3402 513 4948 1266 3941 1918 6633 5737 7101 10074 53 493
71 839 71 1400 0 670 -32 1162 -116 1765 -495 3582 -2494 6780 -5509 8817
-1924 1300 -4151 2040 -6495 2158 -225 11 -1061 11 -1290 -1z m1211 -2399
c2068 -117 4013 -825 5647 -2055 1293 -973 2321 -2198 3047 -3630 645 -1273
1012 -2650 1095 -4104 13 -238 13 -864 0 -1102 -117 -2068 -825 -4013 -2055
-5647 -973 -1293 -2198 -2321 -3630 -3047 -1273 -645 -2650 -1012 -4104 -1095
-238 -13 -864 -13 -1102 0 -2068 117 -4013 825 -5647 2055 -1293 973 -2321
2198 -3047 3630 -645 1273 -1012 2650 -1095 4104 -13 238 -13 864 0 1102 117
2068 825 4013 2055 5647 973 1293 2198 2321 3630 3047 1263 640 2644 1010
4080 1094 209 12 915 12 1126 1z"/>
<path d="M10540 18315 c-238 -44 -455 -159 -630 -334 -231 -231 -350 -521
-350 -851 0 -306 108 -582 317 -809 37 -41 924 -859 1970 -1819 1047 -959
1903 -1748 1903 -1752 0 -5 -861 -798 -1912 -1762 -1052 -965 -1940 -1784
-1973 -1822 -203 -230 -305 -495 -305 -796 0 -387 172 -735 478 -965 208 -156
450 -235 717 -235 273 0 511 80 725 241 100 77 4848 4426 4947 4532 144 155
241 346 289 569 25 115 25 361 0 476 -48 223 -145 414 -289 569 -58 63 -4787
4402 -4893 4489 -169 141 -365 233 -568 269 -108 18 -322 18 -426 0z"/>
</g>
</svg>
